<svg xmlns="http://www.w3.org/2000/svg" xmlns:xlink="http://www.w3.org/1999/xlink" width="15" height="15" viewBox="0 0 20 20"><defs><path id="like_svg__like_svg__prefix__a" d="M0 0H20V20H0z"></path></defs><g fill="none" fill-rule="evenodd"><mask id="like_svg__like_svg__prefix__b" fill="#fff"><use xlink:href="#like_svg__like_svg__prefix__a"></use></mask><g fill="#484848" mask="url(#like_svg__like_svg__prefix__b)"><path d="M10 3.659l.863-.855a5.382 5.382 0 014.642-1.485 5.348 5.348 0 013.93 2.863 5.267 5.267 0 01-.993 6.115l-7.99 8.262a.629.629 0 01-.903 0l-7.98-8.25A5.27 5.27 0 01.566 4.182a5.348 5.348 0 013.93-2.863 5.382 5.382 0 014.641 1.485l.863.855zm7.548 5.771a4.04 4.04 0 00.768-4.694 4.1 4.1 0 00-3.012-2.194 4.125 4.125 0 00-3.557 1.138l-1.305 1.293a.629.629 0 01-.884 0L8.253 3.68a4.125 4.125 0 00-3.557-1.138 4.1 4.1 0 00-3.012 2.195 4.044 4.044 0 00.778 4.705L10 17.235l7.548-7.805z"></path></g></g></svg>